<svg id="visual" viewBox="0 0 900 600" width="900" height="600" xmlns="http://www.w3.org/2000/svg" xmlns:xlink="http://www.w3.org/1999/xlink" version="1.1"><rect x="0" y="0" width="900" height="600" fill="#131313"></rect><path d="M342 0L348 0L348 86L332 86L332 171L390 171L390 257L326 257L326 343L398 343L398 429L339 429L339 514L301 514L301 600L0 600L0 514L0 514L0 429L0 429L0 343L0 343L0 257L0 257L0 171L0 171L0 86L0 86L0 0L0 0Z" fill="#214115"></path><path d="M224 0L256 0L256 86L263 86L263 171L307 171L307 257L221 257L221 343L295 343L295 429L272 429L272 514L310 514L310 600L0 600L0 514L0 514L0 429L0 429L0 343L0 343L0 257L0 257L0 171L0 171L0 86L0 86L0 0L0 0Z" fill="#3a6b28"></path><path d="M164 0L99 0L99 86L178 86L178 171L116 171L116 257L123 257L123 343L103 343L103 429L112 429L112 514L138 514L138 600L0 600L0 514L0 514L0 429L0 429L0 343L0 343L0 257L0 257L0 171L0 171L0 86L0 86L0 0L0 0Z" fill="#54983c"></path></svg>