<?xml version="1.0" encoding="UTF-8"?>
<svg id="Capa_2" data-name="Capa 2" xmlns="http://www.w3.org/2000/svg" viewBox="0 0 8297.23 2165.17">
  <defs>
    <style>
      .cls-1 {
        fill: #f9f9f9;
      }

      .cls-2 {
        fill: #60ac45;
      }
    </style>
  </defs>
  <g id="Layer_1" data-name="Layer 1">
    <g>
      <g>
        <path class="cls-2" d="M942.94,0C712.33,134.36,366.7,326.83,89.34,486.82c63.65,37.96,174.76,104.33,168.48,100.79,71.71,40.5,138.81,78.82,210.21,118.01,15.59,11.53,32.64.22,47.12-7.39,142.13-82.42,286.21-163.63,427.79-246.84,140.35,82.23,277.19,161.28,416.65,242.92,16.49,8.18,35.64,23.74,54.25,11.42,71.4-38.64,142.23-84.02,213.41-122.99,49.74-28.33,140.95-80.22,169.13-96.09C1511.65,322.6,1128.4,108.11,942.94,0Z"/>
        <g>
          <path class="cls-1" d="M.36,633.21c285.31,163.55,569.87,328.52,854.69,492.82.33,65.94.59,131.79-.08,197.65-227.9-131.46-456.22-262.33-683.7-394.54-.84,66.27-.5,132.71-.17,199.07,229.4,128.78,455.8,262.92,684.12,393.71.17,65.85.25,131.71-.08,197.56-228.07-131.71-456.8-262.16-684.03-395.29-.75,131.79-.08,263.58-.25,395.46-57-32.01-113.16-65.6-170.32-97.28C-.31,1292.68.02,962.9.36,633.21Z"/>
          <path class="cls-2" d="M1035.31,1123.03c282.14-164.3,565.28-327.1,848.42-489.81-.08,329.69.5,659.46-.33,989.15-314.23,180.18-627.12,362.62-941.35,542.8-199.49-115.16-399.39-229.57-598.79-344.82,0-66.11-.67-132.13.5-198.23,191.96,110.23,383.09,221.8,574.72,332.53,9.11,3.93,19.31,12.54,29.84,7.94,28.5-11.95,53.99-30,80.4-45.88-.25-254.14.25-508.37-.25-762.59,2.17-9.86-4.43-25.66,6.85-31.09ZM1230.03,1207.35c-11.2,6.35-22.31,13.2-31.51,22.23-1.42,196.48-.42,393.04-.5,589.51,171.82-98.36,343.06-197.9,514.88-296.26.25-66.19.33-132.46-.08-198.65-113.66,66.36-227.82,132.21-341.56,198.57-1.42-66.27-.42-132.63-.42-198.9,106.22-60.67,211.77-122.27,318.16-182.6,10.2-6.85,26.41-12.87,23.99-28.25.33-61.26.25-122.6-.25-183.86-161.04,92.51-320.92,186.95-482.71,278.21Z"/>
        </g>
        <path class="cls-1" d="M647.08,805.67c94.04-52.96,201.8-117.64,294.83-172.45,97.04,57.11,198.02,119.9,296.07,175.43-96.61,58.83-198.27,104.13-295.45,162.09-93.32-54.82-295.31-161.2-295.45-165.07Z"/>
      </g>
      <g>
        <g>
          <path class="cls-1" d="M2352.49,974.34c-31.13,0-60.06-5.1-86.77-15.28-26.72-10.18-49.87-24.69-69.47-43.53-19.6-18.83-34.88-40.93-45.84-66.3s-16.43-53.23-16.43-83.6,5.48-58.23,16.43-83.6,26.32-47.47,46.12-66.3c19.79-18.83,42.95-33.34,69.47-43.53,26.52-10.18,55.54-15.28,87.06-15.28,34.97,0,66.59,6.05,94.84,18.16,28.25,12.11,51.98,29.89,71.2,53.33l-59.96,55.35c-13.84-15.76-29.21-27.58-46.12-35.46-16.92-7.87-35.37-11.82-55.35-11.82-18.84,0-36.13,3.08-51.89,9.22-15.76,6.15-29.4,14.99-40.93,26.52-11.53,11.53-20.47,25.18-26.81,40.93-6.34,15.76-9.51,33.25-9.51,52.47s3.17,36.71,9.51,52.47c6.34,15.76,15.28,29.4,26.81,40.94s25.17,20.38,40.93,26.52c15.76,6.15,33.05,9.22,51.89,9.22,19.98,0,38.43-3.94,55.35-11.82,16.91-7.87,32.29-19.89,46.12-36.04l59.96,55.35c-19.22,23.45-42.95,41.32-71.2,53.62s-60.06,18.45-95.42,18.45Z"/>
          <path class="cls-1" d="M2576.77,967.42v-403.58h93.4v403.58h-93.4Z"/>
          <path class="cls-1" d="M2765.87,967.42v-403.58h77.26l171.81,284.82h-40.93l168.93-284.82h76.68l1.15,403.58h-87.63l-.58-269.25h16.14l-134.91,226.58h-42.09l-137.79-226.58h19.6v269.25h-87.63Z"/>
          <path class="cls-1" d="M3316.47,967.42v-403.58h304.99v74.95h-212.17v253.68h219.67v74.95h-312.49ZM3402.37,799.07v-72.64h194.3v72.64h-194.3Z"/>
          <path class="cls-1" d="M4059.63,974.34c-31.13,0-60.06-5.1-86.77-15.28-26.72-10.18-49.87-24.69-69.47-43.53-19.6-18.83-34.88-40.93-45.84-66.3s-16.43-53.23-16.43-83.6,5.48-58.23,16.43-83.6,26.32-47.47,46.12-66.3c19.79-18.83,42.95-33.34,69.47-43.53,26.52-10.18,55.54-15.28,87.06-15.28,34.97,0,66.59,6.05,94.84,18.16,28.25,12.11,51.98,29.89,71.2,53.33l-59.96,55.35c-13.84-15.76-29.21-27.58-46.12-35.46-16.92-7.87-35.37-11.82-55.35-11.82-18.84,0-36.13,3.08-51.89,9.22-15.77,6.15-29.4,14.99-40.94,26.52s-20.47,25.18-26.81,40.93c-6.34,15.76-9.51,33.25-9.51,52.47s3.17,36.71,9.51,52.47c6.34,15.76,15.28,29.4,26.81,40.94,11.53,11.53,25.17,20.38,40.94,26.52,15.76,6.15,33.05,9.22,51.89,9.22,19.98,0,38.43-3.94,55.35-11.82,16.91-7.87,32.29-19.89,46.12-36.04l59.96,55.35c-19.22,23.45-42.95,41.32-71.2,53.62s-60.06,18.45-95.42,18.45Z"/>
          <path class="cls-1" d="M4462.06,974.34c-31.91,0-61.4-5.19-88.5-15.57s-50.55-24.98-70.34-43.82c-19.8-18.83-35.17-40.93-46.12-66.3s-16.43-53.04-16.43-83.02,5.48-57.66,16.43-83.02c10.95-25.37,26.42-47.47,46.41-66.3,19.98-18.83,43.43-33.44,70.34-43.82,26.9-10.38,56.11-15.57,87.64-15.57s61.2,5.19,87.92,15.57c26.71,10.38,49.96,24.99,69.76,43.82,19.79,18.84,35.26,40.84,46.41,66.01,11.14,25.18,16.72,52.95,16.72,83.31s-5.58,57.75-16.72,83.31c-11.15,25.57-26.62,47.66-46.41,66.3-19.8,18.65-43.05,33.15-69.76,43.53-26.72,10.38-55.83,15.57-87.35,15.57ZM4461.49,894.77c18.06,0,34.68-3.07,49.87-9.22,15.18-6.14,28.54-14.99,40.07-26.52,11.53-11.53,20.47-25.17,26.81-40.94,6.34-15.76,9.51-33.24,9.51-52.47s-3.17-36.7-9.51-52.47c-6.34-15.76-15.19-29.4-26.52-40.93-11.34-11.53-24.7-20.37-40.07-26.52-15.38-6.14-32.1-9.22-50.16-9.22s-34.69,3.08-49.87,9.22c-15.19,6.15-28.54,14.99-40.07,26.52s-20.47,25.18-26.81,40.93c-6.34,15.76-9.51,33.25-9.51,52.47s3.17,36.23,9.51,52.18c6.34,15.95,15.18,29.69,26.52,41.22,11.33,11.53,24.69,20.38,40.07,26.52,15.37,6.15,32.09,9.22,50.16,9.22Z"/>
          <path class="cls-1" d="M4752.64,967.42v-403.58h77.26l238.11,290.58h-37.48v-290.58h92.25v403.58h-76.68l-238.69-290.58h37.48v290.58h-92.25Z"/>
          <path class="cls-1" d="M5351.1,974.34c-32.29,0-63.23-4.32-92.82-12.97-29.6-8.65-53.43-19.89-71.49-33.73l31.71-70.34c17.3,12.31,37.76,22.4,61.4,30.27,23.64,7.88,47.57,11.82,71.78,11.82,18.45,0,33.34-1.82,44.68-5.48,11.33-3.65,19.69-8.74,25.08-15.28,5.38-6.53,8.07-14.03,8.07-22.49,0-10.76-4.23-19.31-12.68-25.66-8.46-6.34-19.6-11.53-33.44-15.57-13.84-4.04-29.12-7.87-45.84-11.53-16.72-3.65-33.44-8.16-50.16-13.55-16.72-5.38-32-12.3-45.84-20.76-13.84-8.45-25.08-19.6-33.73-33.44-8.65-13.84-12.97-31.51-12.97-53.04,0-23.06,6.24-44.11,18.74-63.13,12.49-19.03,31.32-34.21,56.5-45.55,25.17-11.33,56.79-17.01,94.84-17.01,25.37,0,50.35,2.98,74.95,8.94,24.59,5.96,46.31,14.9,65.15,26.81l-28.83,70.92c-18.84-10.76-37.67-18.74-56.5-23.93-18.84-5.19-37.29-7.78-55.35-7.78s-32.86,2.12-44.39,6.34c-11.53,4.23-19.8,9.71-24.79,16.43-5,6.73-7.49,14.51-7.49,23.35,0,10.38,4.22,18.74,12.68,25.08,8.45,6.34,19.6,11.44,33.44,15.28,13.84,3.85,29.12,7.69,45.84,11.53,16.72,3.85,33.44,8.27,50.16,13.26,16.72,5,32,11.73,45.83,20.18,13.84,8.46,25.08,19.6,33.73,33.44,8.65,13.84,12.97,31.33,12.97,52.47,0,22.68-6.34,43.44-19.03,62.27-12.68,18.84-31.62,34.02-56.79,45.55-25.18,11.53-56.99,17.3-95.42,17.3Z"/>
          <path class="cls-1" d="M5765.63,974.34c-57.28,0-102.05-15.95-134.34-47.85-32.29-31.9-48.43-77.45-48.43-136.64v-226.01h93.4v222.55c0,38.44,7.87,66.11,23.64,83.02,15.76,16.92,37.85,25.37,66.3,25.37s50.54-8.45,66.3-25.37c15.76-16.91,23.64-44.58,23.64-83.02v-222.55h92.25v226.01c0,59.2-16.14,104.74-48.43,136.64-32.29,31.91-77.07,47.85-134.34,47.85Z"/>
          <path class="cls-1" d="M6040.64,967.42v-403.58h93.4v327.48h202.37v76.1h-295.77Z"/>
          <path class="cls-1" d="M6429.23,967.42v-327.48h-129.15v-76.1h351.69v76.1h-129.15v327.48h-93.4Z"/>
          <path class="cls-1" d="M6892.19,974.34c-31.91,0-61.4-5.19-88.5-15.57s-50.55-24.98-70.34-43.82c-19.8-18.83-35.17-40.93-46.12-66.3s-16.43-53.04-16.43-83.02,5.48-57.66,16.43-83.02c10.96-25.37,26.42-47.47,46.41-66.3,19.98-18.83,43.43-33.44,70.34-43.82,26.9-10.38,56.11-15.57,87.64-15.57s61.2,5.19,87.92,15.57c26.71,10.38,49.96,24.99,69.76,43.82,19.79,18.84,35.26,40.84,46.41,66.01,11.14,25.18,16.72,52.95,16.72,83.31s-5.58,57.75-16.72,83.31c-11.15,25.57-26.62,47.66-46.41,66.3-19.8,18.65-43.05,33.15-69.76,43.53-26.72,10.38-55.84,15.57-87.35,15.57ZM6891.62,894.77c18.06,0,34.68-3.07,49.87-9.22,15.18-6.14,28.54-14.99,40.07-26.52,11.53-11.53,20.47-25.17,26.81-40.94,6.34-15.76,9.51-33.24,9.51-52.47s-3.17-36.7-9.51-52.47c-6.34-15.76-15.19-29.4-26.52-40.93-11.34-11.53-24.7-20.37-40.07-26.52-15.38-6.14-32.1-9.22-50.16-9.22s-34.69,3.08-49.87,9.22c-15.19,6.15-28.54,14.99-40.07,26.52-11.53,11.53-20.47,25.18-26.81,40.93-6.34,15.76-9.51,33.25-9.51,52.47s3.17,36.23,9.51,52.18c6.34,15.95,15.18,29.69,26.52,41.22,11.33,11.53,24.69,20.38,40.07,26.52,15.37,6.15,32.09,9.22,50.16,9.22Z"/>
          <path class="cls-1" d="M7182.77,967.42v-403.58h172.39c56.12,0,99.74,12.97,130.88,38.92,31.13,25.94,46.7,61.79,46.7,107.53,0,29.98-7.12,55.83-21.33,77.55-14.22,21.72-34.4,38.34-60.54,49.87-26.14,11.53-57.28,17.3-93.4,17.3h-122.8l41.51-40.94v153.36h-93.4ZM7276.17,824.43l-41.51-43.82h117.62c28.83,0,50.35-6.24,64.57-18.74,14.21-12.49,21.33-29.69,21.33-51.6s-7.12-39.58-21.33-51.89c-14.22-12.3-35.75-18.45-64.57-18.45h-117.62l41.51-44.39v228.89ZM7439.33,967.42l-100.9-146.44h99.74l102.05,146.44h-100.9Z"/>
          <path class="cls-1" d="M7606.53,967.42v-403.58h304.99v74.95h-212.17v253.68h219.67v74.95h-312.49ZM7692.43,799.07v-72.64h194.3v72.64h-194.3Z"/>
          <path class="cls-1" d="M8125.99,974.34c-32.29,0-63.23-4.32-92.82-12.97-29.6-8.65-53.43-19.89-71.49-33.73l31.71-70.34c17.3,12.31,37.76,22.4,61.4,30.27,23.64,7.88,47.57,11.82,71.78,11.82,18.45,0,33.34-1.82,44.68-5.48,11.33-3.65,19.69-8.74,25.08-15.28,5.38-6.53,8.07-14.03,8.07-22.49,0-10.76-4.23-19.31-12.68-25.66-8.46-6.34-19.6-11.53-33.44-15.57-13.84-4.04-29.12-7.87-45.84-11.53-16.72-3.65-33.44-8.16-50.16-13.55-16.72-5.38-32-12.3-45.84-20.76-13.84-8.45-25.08-19.6-33.73-33.44-8.65-13.84-12.97-31.51-12.97-53.04,0-23.06,6.24-44.11,18.74-63.13,12.49-19.03,31.32-34.21,56.5-45.55,25.17-11.33,56.79-17.01,94.84-17.01,25.37,0,50.35,2.98,74.95,8.94,24.59,5.96,46.31,14.9,65.15,26.81l-28.83,70.92c-18.84-10.76-37.67-18.74-56.5-23.93-18.84-5.19-37.29-7.78-55.35-7.78s-32.86,2.12-44.39,6.34c-11.53,4.23-19.8,9.71-24.79,16.43-5,6.73-7.49,14.51-7.49,23.35,0,10.38,4.22,18.74,12.68,25.08,8.45,6.34,19.6,11.44,33.44,15.28,13.84,3.85,29.12,7.69,45.84,11.53,16.72,3.85,33.44,8.27,50.16,13.26,16.72,5,32,11.73,45.83,20.18,13.84,8.46,25.08,19.6,33.73,33.44,8.65,13.84,12.97,31.33,12.97,52.47,0,22.68-6.34,43.44-19.03,62.27-12.68,18.84-31.62,34.02-56.79,45.55-25.18,11.53-56.99,17.3-95.42,17.3Z"/>
        </g>
        <g>
          <path class="cls-1" d="M2133.98,1534.58l113.79-255.3h58.35l114.15,255.3h-62l-93.37-225.39h23.34l-93.73,225.39h-60.54ZM2190.88,1479.87l15.68-44.86h131.3l16.05,44.86h-163.03Z"/>
          <path class="cls-1" d="M2507.08,1537.5c-16.78,0-32.89-2.01-48.32-6.02-15.44-4.01-27.66-9.06-36.65-15.14l18.96-40.85c8.99,5.6,19.63,10.16,31.91,13.68,12.28,3.53,24.37,5.29,36.29,5.29,13.13,0,22.43-1.58,27.9-4.74,5.47-3.16,8.21-7.53,8.21-13.13,0-4.62-2.13-8.08-6.38-10.39-4.26-2.31-9.91-4.07-16.96-5.29-7.05-1.21-14.77-2.43-23.16-3.65-8.39-1.21-16.84-2.86-25.35-4.92-8.51-2.06-16.29-5.16-23.34-9.3-7.05-4.13-12.71-9.72-16.96-16.78-4.26-7.05-6.38-16.17-6.38-27.35,0-12.4,3.58-23.34,10.76-32.82,7.17-9.48,17.56-16.96,31.18-22.43,13.61-5.47,29.91-8.21,48.87-8.21,13.37,0,26.99,1.46,40.85,4.38,13.86,2.92,25.4,7.17,34.65,12.76l-18.97,40.48c-9.48-5.59-19.03-9.42-28.63-11.49-9.61-2.06-18.91-3.1-27.9-3.1-12.64,0-21.88,1.7-27.72,5.11-5.84,3.41-8.75,7.78-8.75,13.13,0,4.87,2.13,8.51,6.38,10.94,4.25,2.43,9.9,4.38,16.96,5.83,7.05,1.46,14.77,2.74,23.16,3.83,8.39,1.09,16.83,2.74,25.35,4.92,8.51,2.19,16.23,5.29,23.16,9.3,6.93,4.01,12.58,9.48,16.96,16.41,4.38,6.93,6.56,15.99,6.56,27.17,0,12.16-3.65,22.92-10.94,32.28-7.29,9.36-17.81,16.72-31.55,22.07-13.74,5.34-30.45,8.02-50.15,8.02Z"/>
          <path class="cls-1" d="M2732.1,1537.5c-22.37,0-42-4.38-58.9-13.13-16.9-8.75-29.97-20.73-39.21-35.92-9.24-15.19-13.86-32.52-13.86-51.97s4.56-37.14,13.68-52.34c9.12-15.19,21.58-27.11,37.38-35.74,15.8-8.63,33.67-12.95,53.61-12.95s36.53,4.07,51.97,12.22c15.44,8.15,27.66,19.82,36.65,35.01,8.99,15.2,13.49,33.37,13.49,54.52,0,2.19-.13,4.68-.37,7.48-.25,2.8-.49,5.41-.73,7.84h-159.38v-33.19h129.47l-21.88,9.85c0-10.21-2.07-19.08-6.2-26.62-4.14-7.53-9.85-13.43-17.14-17.69-7.29-4.25-15.81-6.38-25.53-6.38s-18.3,2.13-25.71,6.38c-7.42,4.26-13.19,10.21-17.32,17.87-4.14,7.66-6.2,16.72-6.2,27.17v8.75c0,10.7,2.37,20.12,7.11,28.27,4.74,8.15,11.43,14.35,20.06,18.6,8.63,4.26,18.78,6.38,30.45,6.38,10.45,0,19.63-1.58,27.54-4.74,7.9-3.16,15.13-7.9,21.7-14.22l30.27,32.82c-9,10.21-20.3,18.05-33.92,23.52-13.62,5.47-29.3,8.21-47.05,8.21Z"/>
          <path class="cls-1" d="M2930.87,1537.5c-16.78,0-32.89-2.01-48.32-6.02-15.44-4.01-27.66-9.06-36.65-15.14l18.96-40.85c8.99,5.6,19.63,10.16,31.91,13.68,12.28,3.53,24.37,5.29,36.29,5.29,13.13,0,22.43-1.58,27.9-4.74,5.47-3.16,8.21-7.53,8.21-13.13,0-4.62-2.13-8.08-6.38-10.39-4.26-2.31-9.91-4.07-16.96-5.29-7.06-1.21-14.77-2.43-23.16-3.65-8.39-1.21-16.84-2.86-25.35-4.92-8.51-2.06-16.29-5.16-23.34-9.3-7.05-4.13-12.71-9.72-16.96-16.78-4.26-7.05-6.38-16.17-6.38-27.35,0-12.4,3.58-23.34,10.76-32.82,7.17-9.48,17.56-16.96,31.18-22.43,13.61-5.47,29.91-8.21,48.87-8.21,13.37,0,26.99,1.46,40.85,4.38,13.86,2.92,25.4,7.17,34.65,12.76l-18.97,40.48c-9.48-5.59-19.03-9.42-28.63-11.49-9.61-2.06-18.91-3.1-27.9-3.1-12.65,0-21.88,1.7-27.72,5.11-5.84,3.41-8.75,7.78-8.75,13.13,0,4.87,2.12,8.51,6.38,10.94,4.25,2.43,9.9,4.38,16.96,5.83,7.05,1.46,14.77,2.74,23.16,3.83,8.39,1.09,16.83,2.74,25.35,4.92,8.51,2.19,16.23,5.29,23.16,9.3,6.93,4.01,12.58,9.48,16.96,16.41,4.38,6.93,6.56,15.99,6.56,27.17,0,12.16-3.65,22.92-10.94,32.28-7.29,9.36-17.81,16.72-31.55,22.07-13.74,5.34-30.45,8.02-50.15,8.02Z"/>
          <path class="cls-1" d="M3151.88,1537.5c-20.91,0-39.45-4.38-55.62-13.13-16.17-8.75-28.94-20.73-38.29-35.92-9.36-15.19-14.04-32.52-14.04-51.97s4.68-37.14,14.04-52.34c9.36-15.19,22.12-27.11,38.29-35.74,16.17-8.63,34.7-12.95,55.62-12.95s39.14,4.32,55.44,12.95c16.29,8.63,29.05,20.49,38.29,35.56,9.24,15.08,13.86,32.58,13.86,52.52s-4.62,36.78-13.86,51.97c-9.24,15.2-22.01,27.17-38.29,35.92-16.29,8.75-34.77,13.13-55.44,13.13ZM3151.88,1490.81c9.48,0,17.99-2.19,25.53-6.56,7.53-4.38,13.49-10.63,17.87-18.78,4.38-8.14,6.57-17.81,6.57-29s-2.19-21.15-6.57-29.18c-4.38-8.02-10.34-14.22-17.87-18.6-7.54-4.38-16.05-6.57-25.53-6.57s-18,2.19-25.53,6.57c-7.54,4.38-13.56,10.58-18.05,18.6-4.5,8.02-6.75,17.75-6.75,29.18s2.25,20.85,6.75,29c4.5,8.15,10.51,14.41,18.05,18.78,7.53,4.38,16.05,6.56,25.53,6.56Z"/>
          <path class="cls-1" d="M3297.4,1534.58v-196.21h54.34v55.44l-7.66-16.05c5.83-13.86,15.19-24.37,28.08-31.55,12.88-7.17,28.57-10.76,47.05-10.76v52.52c-2.43-.24-4.62-.42-6.56-.55-1.95-.12-4.01-.18-6.2-.18-15.56,0-28.15,4.44-37.75,13.31-9.61,8.88-14.41,22.67-14.41,41.39v92.64h-56.89Z"/>
          <path class="cls-1" d="M3548.69,1537.5c-22.37,0-42-4.38-58.9-13.13-16.9-8.75-29.97-20.73-39.21-35.92-9.24-15.19-13.86-32.52-13.86-51.97s4.56-37.14,13.68-52.34c9.12-15.19,21.58-27.11,37.38-35.74,15.8-8.63,33.67-12.95,53.61-12.95s36.53,4.07,51.97,12.22c15.44,8.15,27.66,19.82,36.65,35.01,8.99,15.2,13.49,33.37,13.49,54.52,0,2.19-.13,4.68-.36,7.48-.25,2.8-.49,5.41-.73,7.84h-159.38v-33.19h129.47l-21.88,9.85c0-10.21-2.07-19.08-6.2-26.62-4.14-7.53-9.85-13.43-17.14-17.69-7.29-4.25-15.81-6.38-25.53-6.38s-18.3,2.13-25.71,6.38c-7.42,4.26-13.19,10.21-17.32,17.87-4.14,7.66-6.2,16.72-6.2,27.17v8.75c0,10.7,2.37,20.12,7.11,28.27,4.74,8.15,11.43,14.35,20.06,18.6,8.63,4.26,18.78,6.38,30.45,6.38,10.45,0,19.63-1.58,27.54-4.74,7.9-3.16,15.14-7.9,21.7-14.22l30.27,32.82c-9,10.21-20.3,18.05-33.92,23.52-13.62,5.47-29.3,8.21-47.05,8.21Z"/>
          <path class="cls-1" d="M3747.46,1537.5c-16.78,0-32.89-2.01-48.32-6.02-15.44-4.01-27.66-9.06-36.65-15.14l18.96-40.85c8.99,5.6,19.63,10.16,31.91,13.68,12.27,3.53,24.37,5.29,36.29,5.29,13.13,0,22.43-1.58,27.9-4.74,5.47-3.16,8.21-7.53,8.21-13.13,0-4.62-2.13-8.08-6.38-10.39-4.26-2.31-9.91-4.07-16.96-5.29-7.06-1.21-14.77-2.43-23.16-3.65-8.39-1.21-16.84-2.86-25.35-4.92-8.51-2.06-16.29-5.16-23.34-9.3-7.05-4.13-12.71-9.72-16.96-16.78-4.26-7.05-6.38-16.17-6.38-27.35,0-12.4,3.58-23.34,10.76-32.82,7.17-9.48,17.56-16.96,31.18-22.43,13.61-5.47,29.91-8.21,48.87-8.21,13.37,0,26.99,1.46,40.85,4.38,13.86,2.92,25.4,7.17,34.65,12.76l-18.96,40.48c-9.48-5.59-19.03-9.42-28.63-11.49-9.61-2.06-18.91-3.1-27.9-3.1-12.65,0-21.88,1.7-27.72,5.11-5.84,3.41-8.75,7.78-8.75,13.13,0,4.87,2.12,8.51,6.38,10.94,4.25,2.43,9.9,4.38,16.96,5.83,7.05,1.46,14.77,2.74,23.16,3.83,8.39,1.09,16.83,2.74,25.35,4.92,8.51,2.19,16.23,5.29,23.16,9.3s12.58,9.48,16.96,16.41c4.38,6.93,6.56,15.99,6.56,27.17,0,12.16-3.65,22.92-10.94,32.28-7.29,9.36-17.81,16.72-31.55,22.07-13.74,5.34-30.45,8.02-50.15,8.02Z"/>
          <path class="cls-1" d="M3982.32,1534.58v-255.3h192.93v47.41h-133.85v207.88h-59.08ZM4037.03,1441.58v-47.41h122.54v47.41h-122.54Z"/>
          <path class="cls-1" d="M4239.8,1311.01c-10.46,0-18.96-3.04-25.53-9.12-6.56-6.08-9.85-13.61-9.85-22.61s3.28-16.53,9.85-22.61c6.57-6.07,15.07-9.12,25.53-9.12s18.96,2.86,25.53,8.57c6.56,5.72,9.85,13.07,9.85,22.06,0,9.48-3.23,17.32-9.67,23.52-6.44,6.2-15.02,9.3-25.71,9.3ZM4211.36,1534.58v-196.21h56.9v196.21h-56.9Z"/>
          <path class="cls-1" d="M4387.14,1537.5c-16.78,0-32.89-2.01-48.32-6.02-15.44-4.01-27.66-9.06-36.65-15.14l18.96-40.85c8.99,5.6,19.63,10.16,31.91,13.68,12.27,3.53,24.37,5.29,36.29,5.29,13.13,0,22.43-1.58,27.9-4.74,5.47-3.16,8.21-7.53,8.21-13.13,0-4.62-2.13-8.08-6.38-10.39-4.26-2.31-9.91-4.07-16.96-5.29-7.05-1.21-14.77-2.43-23.16-3.65-8.39-1.21-16.84-2.86-25.35-4.92-8.51-2.06-16.29-5.16-23.34-9.3-7.05-4.13-12.71-9.72-16.96-16.78-4.26-7.05-6.38-16.17-6.38-27.35,0-12.4,3.58-23.34,10.76-32.82,7.17-9.48,17.56-16.96,31.18-22.43,13.61-5.47,29.91-8.21,48.87-8.21,13.37,0,26.99,1.46,40.85,4.38,13.86,2.92,25.4,7.17,34.65,12.76l-18.96,40.48c-9.48-5.59-19.03-9.42-28.63-11.49-9.61-2.06-18.91-3.1-27.9-3.1-12.64,0-21.88,1.7-27.72,5.11-5.84,3.41-8.75,7.78-8.75,13.13,0,4.87,2.13,8.51,6.38,10.94,4.25,2.43,9.9,4.38,16.96,5.83,7.05,1.46,14.77,2.74,23.16,3.83,8.39,1.09,16.83,2.74,25.35,4.92,8.51,2.19,16.23,5.29,23.16,9.3,6.93,4.01,12.58,9.48,16.96,16.41,4.38,6.93,6.56,15.99,6.56,27.17,0,12.16-3.65,22.92-10.94,32.28-7.29,9.36-17.81,16.72-31.55,22.07-13.74,5.34-30.45,8.02-50.15,8.02Z"/>
          <path class="cls-1" d="M4609.61,1537.5c-21.15,0-40-4.31-56.53-12.95-16.54-8.63-29.48-20.61-38.84-35.92-9.36-15.32-14.04-32.7-14.04-52.15s4.68-37.14,14.04-52.34c9.36-15.19,22.3-27.11,38.84-35.74,16.53-8.63,35.38-12.95,56.53-12.95s38.66,4.32,53.98,12.95c15.32,8.63,26.62,20.97,33.92,37.02l-44.13,23.71c-5.11-9.24-11.49-16.05-19.15-20.42-7.66-4.38-15.99-6.57-24.98-6.57-9.73,0-18.48,2.19-26.26,6.57-7.78,4.38-13.92,10.58-18.42,18.6-4.5,8.02-6.75,17.75-6.75,29.18s2.24,21.15,6.75,29.18c4.5,8.02,10.63,14.22,18.42,18.6,7.78,4.38,16.53,6.56,26.26,6.56,8.99,0,17.32-2.12,24.98-6.38,7.66-4.25,14.04-11.12,19.15-20.61l44.13,24.07c-7.29,15.81-18.6,28.03-33.92,36.65-15.32,8.63-33.31,12.95-53.98,12.95Z"/>
          <path class="cls-1" d="M4790.87,1537.5c-15.32,0-28.45-2.62-39.39-7.84s-19.33-12.34-25.17-21.33c-5.83-8.99-8.75-19.08-8.75-30.27s2.86-21.88,8.57-30.64c5.71-8.75,14.77-15.62,27.17-20.61,12.4-4.98,28.57-7.48,48.51-7.48h52.15v33.19h-45.95c-13.37,0-22.56,2.19-27.54,6.56-4.99,4.38-7.48,9.85-7.48,16.41,0,7.29,2.86,13.07,8.57,17.32,5.71,4.26,13.55,6.38,23.52,6.38s17.99-2.25,25.53-6.75c7.53-4.5,13-11.12,16.41-19.88l8.75,26.26c-4.14,12.64-11.67,22.25-22.61,28.81-10.94,6.57-25.04,9.85-42.31,9.85ZM4850.68,1534.58v-38.29l-3.65-8.39v-68.57c0-12.16-3.71-21.64-11.12-28.45-7.42-6.8-18.78-10.21-34.1-10.21-10.46,0-20.73,1.64-30.82,4.92-10.09,3.28-18.66,7.72-25.71,13.31l-20.42-39.75c10.7-7.53,23.58-13.37,38.66-17.51,15.07-4.13,30.39-6.2,45.95-6.2,29.91,0,53.12,7.05,69.66,21.15,16.53,14.1,24.8,36.11,24.8,66.01v111.97h-53.25Z"/>
          <path class="cls-1" d="M4955.35,1534.58v-270.62h56.89v270.62h-56.89Z"/>
          <path class="cls-1" d="M5162.5,1537.5c-22.37,0-42-4.38-58.9-13.13-16.9-8.75-29.97-20.73-39.21-35.92-9.24-15.19-13.86-32.52-13.86-51.97s4.56-37.14,13.68-52.34c9.12-15.19,21.58-27.11,37.38-35.74,15.8-8.63,33.67-12.95,53.61-12.95s36.53,4.07,51.97,12.22c15.44,8.15,27.66,19.82,36.65,35.01,8.99,15.2,13.5,33.37,13.5,54.52,0,2.19-.13,4.68-.37,7.48-.25,2.8-.49,5.41-.73,7.84h-159.38v-33.19h129.47l-21.88,9.85c0-10.21-2.07-19.08-6.2-26.62-4.14-7.53-9.85-13.43-17.14-17.69-7.29-4.25-15.81-6.38-25.53-6.38s-18.3,2.13-25.71,6.38c-7.42,4.26-13.19,10.21-17.32,17.87-4.14,7.66-6.2,16.72-6.2,27.17v8.75c0,10.7,2.37,20.12,7.11,28.27,4.74,8.15,11.43,14.35,20.06,18.6,8.63,4.26,18.78,6.38,30.45,6.38,10.45,0,19.63-1.58,27.54-4.74,7.9-3.16,15.13-7.9,21.7-14.22l30.27,32.82c-9,10.21-20.3,18.05-33.92,23.52-13.62,5.47-29.3,8.21-47.05,8.21Z"/>
          <path class="cls-1" d="M5361.27,1537.5c-16.78,0-32.89-2.01-48.32-6.02-15.44-4.01-27.66-9.06-36.65-15.14l18.96-40.85c8.99,5.6,19.63,10.16,31.91,13.68,12.28,3.53,24.37,5.29,36.29,5.29,13.13,0,22.43-1.58,27.9-4.74,5.47-3.16,8.21-7.53,8.21-13.13,0-4.62-2.13-8.08-6.38-10.39-4.26-2.31-9.91-4.07-16.96-5.29-7.05-1.21-14.77-2.43-23.16-3.65-8.39-1.21-16.84-2.86-25.35-4.92-8.51-2.06-16.29-5.16-23.34-9.3-7.06-4.13-12.71-9.72-16.96-16.78-4.26-7.05-6.38-16.17-6.38-27.35,0-12.4,3.58-23.34,10.76-32.82,7.17-9.48,17.56-16.96,31.18-22.43,13.61-5.47,29.91-8.21,48.87-8.21,13.37,0,26.99,1.46,40.85,4.38,13.86,2.92,25.4,7.17,34.65,12.76l-18.96,40.48c-9.48-5.59-19.03-9.42-28.63-11.49-9.61-2.06-18.91-3.1-27.9-3.1-12.65,0-21.88,1.7-27.72,5.11-5.83,3.41-8.75,7.78-8.75,13.13,0,4.87,2.12,8.51,6.38,10.94,4.25,2.43,9.9,4.38,16.96,5.83,7.05,1.46,14.77,2.74,23.16,3.83,8.39,1.09,16.83,2.74,25.35,4.92,8.51,2.19,16.23,5.29,23.16,9.3s12.58,9.48,16.96,16.41c4.38,6.93,6.57,15.99,6.57,27.17,0,12.16-3.65,22.92-10.94,32.28-7.29,9.36-17.81,16.72-31.55,22.07-13.74,5.34-30.45,8.02-50.15,8.02Z"/>
          <path class="cls-1" d="M5616.92,1608.25c-10.21,0-20.3-1.58-30.27-4.74-9.97-3.16-18.12-7.54-24.44-13.13l20.79-40.48c4.38,3.89,9.42,6.93,15.14,9.12,5.71,2.19,11.36,3.28,16.96,3.28,8.02,0,14.41-1.89,19.15-5.65,4.74-3.77,9.05-10.03,12.95-18.78l10.21-24.07,4.38-6.2,70.39-169.23h54.71l-88.62,208.25c-6.33,15.8-13.56,28.2-21.7,37.2-8.15,8.99-17.14,15.32-26.99,18.96-9.85,3.65-20.73,5.47-32.64,5.47ZM5650.48,1542.24l-87.53-203.87h58.72l67.84,164.12-39.02,39.75Z"/>
          <path class="cls-1" d="M6039.62,1538.96c-19.7,0-37.99-3.23-54.89-9.67-16.9-6.44-31.55-15.62-43.95-27.54-12.4-11.91-22.07-25.89-28.99-41.94-6.93-16.05-10.39-33.67-10.39-52.88s3.46-36.84,10.39-52.88c6.93-16.05,16.65-30.03,29.18-41.94,12.52-11.91,27.17-21.09,43.95-27.54,16.78-6.44,35.13-9.67,55.07-9.67,22.12,0,42.12,3.83,60,11.49,17.87,7.66,32.88,18.91,45.04,33.74l-37.93,35.01c-8.75-9.97-18.48-17.44-29.18-22.43-10.7-4.98-22.37-7.48-35.01-7.48-11.92,0-22.86,1.95-32.82,5.84-9.97,3.89-18.6,9.48-25.89,16.78s-12.95,15.93-16.96,25.89c-4.01,9.97-6.02,21.03-6.02,33.19s2.01,23.22,6.02,33.19c4.01,9.97,9.67,18.6,16.96,25.89s15.92,12.89,25.89,16.78c9.97,3.89,20.91,5.84,32.82,5.84,12.64,0,24.31-2.49,35.01-7.48,10.7-4.98,20.42-12.58,29.18-22.79l37.93,35.01c-12.16,14.83-27.17,26.14-45.04,33.92-17.87,7.78-37.99,11.67-60.36,11.67Z"/>
          <path class="cls-1" d="M6263.91,1537.5c-20.91,0-39.45-4.38-55.62-13.13-16.17-8.75-28.94-20.73-38.29-35.92-9.36-15.19-14.04-32.52-14.04-51.97s4.68-37.14,14.04-52.34c9.36-15.19,22.12-27.11,38.29-35.74,16.17-8.63,34.7-12.95,55.62-12.95s39.14,4.32,55.44,12.95c16.29,8.63,29.05,20.49,38.29,35.56,9.24,15.08,13.86,32.58,13.86,52.52s-4.62,36.78-13.86,51.97c-9.24,15.2-22.01,27.17-38.29,35.92-16.29,8.75-34.77,13.13-55.44,13.13ZM6263.91,1490.81c9.48,0,17.99-2.19,25.53-6.56,7.53-4.38,13.49-10.63,17.87-18.78,4.38-8.14,6.56-17.81,6.56-29s-2.19-21.15-6.56-29.18c-4.38-8.02-10.34-14.22-17.87-18.6-7.54-4.38-16.05-6.57-25.53-6.57s-18,2.19-25.53,6.57c-7.54,4.38-13.56,10.58-18.05,18.6-4.5,8.02-6.75,17.75-6.75,29.18s2.25,20.85,6.75,29c4.5,8.15,10.51,14.41,18.05,18.78,7.53,4.38,16.05,6.56,25.53,6.56Z"/>
          <path class="cls-1" d="M6409.43,1534.58v-196.21h54.34v54.34l-10.21-16.41c7.05-13.13,17.14-23.22,30.27-30.27,13.13-7.05,28.08-10.58,44.86-10.58,15.56,0,29.48,3.1,41.76,9.3,12.27,6.2,21.94,15.68,28.99,28.45,7.05,12.76,10.58,29.12,10.58,49.05v112.33h-56.89v-103.58c0-15.8-3.46-27.47-10.39-35.01-6.93-7.53-16.72-11.31-29.36-11.31-9,0-17.08,1.89-24.25,5.65-7.17,3.77-12.77,9.55-16.78,17.32-4.01,7.78-6.02,17.75-6.02,29.91v97.01h-56.89Z"/>
          <path class="cls-1" d="M6638.1,1382.13v-43.76h136.04v43.76h-136.04ZM6741.68,1537.5c-23.1,0-41.09-5.89-53.98-17.69-12.89-11.79-19.33-29.36-19.33-52.7v-172.14h56.9v171.41c0,8.27,2.19,14.65,6.56,19.15,4.38,4.5,10.33,6.75,17.87,6.75,8.99,0,16.65-2.43,22.98-7.29l15.32,40.12c-5.83,4.14-12.83,7.24-20.97,9.3-8.15,2.06-16.59,3.1-25.35,3.1Z"/>
          <path class="cls-1" d="M6874.07,1537.5c-15.32,0-28.45-2.62-39.39-7.84s-19.33-12.34-25.17-21.33c-5.83-8.99-8.75-19.08-8.75-30.27s2.86-21.88,8.57-30.64c5.71-8.75,14.77-15.62,27.17-20.61,12.4-4.98,28.57-7.48,48.51-7.48h52.15v33.19h-45.95c-13.37,0-22.56,2.19-27.54,6.56-4.99,4.38-7.48,9.85-7.48,16.41,0,7.29,2.86,13.07,8.57,17.32,5.71,4.26,13.55,6.38,23.52,6.38s17.99-2.25,25.53-6.75c7.53-4.5,13-11.12,16.41-19.88l8.75,26.26c-4.14,12.64-11.67,22.25-22.61,28.81-10.94,6.57-25.04,9.85-42.31,9.85ZM6933.89,1534.58v-38.29l-3.65-8.39v-68.57c0-12.16-3.71-21.64-11.12-28.45-7.42-6.8-18.78-10.21-34.1-10.21-10.46,0-20.73,1.64-30.82,4.92-10.09,3.28-18.66,7.72-25.71,13.31l-20.42-39.75c10.7-7.53,23.58-13.37,38.66-17.51,15.07-4.13,30.39-6.2,45.95-6.2,29.91,0,53.12,7.05,69.66,21.15,16.53,14.1,24.8,36.11,24.8,66.01v111.97h-53.25Z"/>
          <path class="cls-1" d="M7038.55,1534.58v-270.62h56.89v114.15l-3.65,57.99,1.09,58.35v40.12h-54.34ZM7154.53,1537.5c-17.27,0-32.09-3.65-44.5-10.94-12.4-7.29-21.88-18.42-28.45-33.37-6.56-14.95-9.85-33.86-9.85-56.71s3.46-42.06,10.39-56.89c6.93-14.83,16.59-25.89,29-33.19,12.4-7.29,26.86-10.94,43.4-10.94,18.48,0,35.07,4.14,49.78,12.4,14.71,8.27,26.38,19.94,35.01,35.01,8.63,15.08,12.95,32.95,12.95,53.61s-4.32,38.18-12.95,53.25c-8.63,15.08-20.3,26.81-35.01,35.19-14.71,8.39-31.31,12.58-49.78,12.58ZM7144.68,1490.81c9.48,0,17.93-2.19,25.35-6.56,7.41-4.38,13.37-10.63,17.87-18.78,4.5-8.14,6.75-17.81,6.75-29s-2.25-21.15-6.75-29.18c-4.5-8.02-10.46-14.22-17.87-18.6-7.42-4.38-15.87-6.57-25.35-6.57s-18,2.19-25.53,6.57c-7.54,4.38-13.49,10.58-17.87,18.6-4.38,8.02-6.57,17.75-6.57,29.18s2.19,20.85,6.57,29c4.38,8.15,10.33,14.41,17.87,18.78,7.53,4.38,16.05,6.56,25.53,6.56Z"/>
          <path class="cls-1" d="M7290.2,1534.58v-270.62h56.89v270.62h-56.89Z"/>
          <path class="cls-1" d="M7497.35,1537.5c-22.37,0-42-4.38-58.9-13.13-16.9-8.75-29.97-20.73-39.21-35.92-9.24-15.19-13.86-32.52-13.86-51.97s4.56-37.14,13.68-52.34c9.12-15.19,21.58-27.11,37.38-35.74,15.8-8.63,33.67-12.95,53.61-12.95s36.53,4.07,51.97,12.22c15.44,8.15,27.66,19.82,36.65,35.01,8.99,15.2,13.49,33.37,13.49,54.52,0,2.19-.12,4.68-.37,7.48-.24,2.8-.49,5.41-.73,7.84h-159.38v-33.19h129.47l-21.88,9.85c0-10.21-2.07-19.08-6.2-26.62-4.14-7.53-9.85-13.43-17.14-17.69-7.29-4.25-15.81-6.38-25.53-6.38s-18.3,2.13-25.71,6.38c-7.42,4.26-13.19,10.21-17.32,17.87-4.14,7.66-6.2,16.72-6.2,27.17v8.75c0,10.7,2.37,20.12,7.11,28.27,4.74,8.15,11.43,14.35,20.06,18.6,8.63,4.26,18.78,6.38,30.45,6.38,10.45,0,19.63-1.58,27.54-4.74,7.9-3.16,15.13-7.9,21.7-14.22l30.27,32.82c-9,10.21-20.3,18.05-33.92,23.52-13.62,5.47-29.3,8.21-47.05,8.21Z"/>
          <path class="cls-1" d="M7696.12,1537.5c-16.78,0-32.89-2.01-48.32-6.02-15.44-4.01-27.66-9.06-36.65-15.14l18.96-40.85c8.99,5.6,19.63,10.16,31.91,13.68,12.27,3.53,24.37,5.29,36.29,5.29,13.13,0,22.43-1.58,27.9-4.74,5.47-3.16,8.21-7.53,8.21-13.13,0-4.62-2.13-8.08-6.38-10.39-4.26-2.31-9.91-4.07-16.96-5.29-7.05-1.21-14.77-2.43-23.16-3.65-8.39-1.21-16.84-2.86-25.35-4.92-8.51-2.06-16.29-5.16-23.34-9.3-7.06-4.13-12.71-9.72-16.96-16.78-4.26-7.05-6.38-16.17-6.38-27.35,0-12.4,3.58-23.34,10.76-32.82,7.17-9.48,17.56-16.96,31.18-22.43,13.61-5.47,29.91-8.21,48.87-8.21,13.37,0,26.99,1.46,40.85,4.38,13.86,2.92,25.4,7.17,34.65,12.76l-18.96,40.48c-9.48-5.59-19.03-9.42-28.63-11.49-9.61-2.06-18.91-3.1-27.9-3.1-12.64,0-21.88,1.7-27.72,5.11-5.83,3.41-8.75,7.78-8.75,13.13,0,4.87,2.12,8.51,6.38,10.94,4.25,2.43,9.9,4.38,16.96,5.83,7.05,1.46,14.77,2.74,23.16,3.83,8.39,1.09,16.83,2.74,25.35,4.92,8.51,2.19,16.23,5.29,23.16,9.3,6.93,4.01,12.58,9.48,16.96,16.41,4.38,6.93,6.57,15.99,6.57,27.17,0,12.16-3.65,22.92-10.94,32.28-7.29,9.36-17.81,16.72-31.55,22.07-13.74,5.34-30.45,8.02-50.15,8.02Z"/>
        </g>
      </g>
    </g>
  </g>
</svg>